<svg width="366" height="173" viewBox="0 0 366 173" fill="none" xmlns="http://www.w3.org/2000/svg">
<path d="M272.56 80.5243V100.177C272.56 102.595 271.59 103.805 269.759 103.805C267.821 103.805 266.851 102.696 266.851 100.479V89.2923C265.236 91.2071 262.866 92.5173 259.85 93.0212C257.265 93.4243 254.68 93.4243 251.988 93.5251V103.906C251.988 107.836 253.172 111.162 255.542 113.681C257.912 116.201 260.927 117.511 264.697 117.511C267.174 117.511 269.759 116.806 272.344 115.395C270.944 120.434 267.821 123.054 262.974 123.054C261.466 123.054 259.743 122.651 257.696 121.845V133.938C260.389 134.946 263.189 135.45 265.882 135.45C272.129 135.45 277.514 133.233 281.931 128.698C285.593 124.868 287.531 119.93 287.531 113.782V80.6251H272.56V80.5243ZM251.88 80.5243V81.0282C251.988 80.8266 252.095 80.7259 252.203 80.5243H251.88Z" fill="#FCFBFA"/>
<path d="M221.614 99.8742C217.198 102.998 212.782 106.123 208.366 109.247V117.712H223.23V99.068C222.691 99.2695 222.045 99.4711 221.614 99.8742ZM228.831 98.7656V117.712H243.695V98.7656C238.74 98.7656 233.785 98.6648 228.831 98.7656Z" fill="#FCFBFA"/>
<path d="M274.176 80.5243C273.853 78.811 273.207 77.1985 272.237 75.6868C269.114 70.8493 264.806 67.4228 258.989 65.7095C258.235 65.5079 257.374 64.6009 257.266 63.8954C255.866 55.2282 247.788 48.6774 237.232 48.7782C236.371 48.7782 235.186 48.1735 234.54 47.5688C225.277 37.7931 207.828 37.8938 198.78 47.7704C197.919 48.6774 197.165 49.0806 195.872 48.7782C185.209 46.561 175.192 53.5149 174.438 63.6938C174.331 64.7017 174.223 65.5079 172.93 65.911C166.037 67.6243 162.483 72.2603 160.867 78.3071C159.467 83.5477 159.898 88.7884 161.729 94.029C162.483 96.0446 163.452 97.1532 164.852 97.8587C166.037 98.4634 167.437 98.6649 169.161 98.7657C172.176 98.8665 175.3 98.7657 178.316 98.7657H179.716V97.5563C179.716 95.2384 180.578 94.1298 182.193 94.1298C183.27 94.1298 183.917 94.4321 184.24 94.936C184.563 95.4399 184.778 96.5485 184.778 98.161V98.7657H186.932C190.164 98.7657 190.702 99.2696 190.702 102.293C190.702 106.727 190.702 111.162 190.702 115.596C190.702 116.402 190.702 117.108 191.025 117.713H196.518C197.596 116.906 198.673 116.201 199.75 115.395C202.658 113.379 205.566 111.263 208.366 109.247C212.782 106.123 217.198 102.999 221.615 99.8743C222.045 99.572 222.692 99.2696 223.23 99.0681V96.7501C223.23 94.6337 224.2 93.5251 226.031 93.5251C227.862 93.5251 228.831 94.6337 228.831 96.7501V98.7657C233.786 98.7657 238.74 98.7657 243.695 98.7657C246.387 98.7657 249.08 98.7657 251.881 98.7657C253.173 98.7657 254.573 98.7657 255.866 98.6649C258.989 98.5642 262.328 98.0602 265.129 96.9517C265.667 96.7501 266.206 96.4477 266.744 96.1454C269.222 94.8352 271.16 92.8196 272.561 90.6024C274.284 87.579 274.93 83.9509 274.176 80.5243ZM266.744 89.2923C265.129 91.2071 262.759 92.5173 259.743 93.0212C257.158 93.4243 254.573 93.4243 251.881 93.5251C251.019 93.5251 250.265 93.5251 249.403 93.6259C249.403 93.5251 249.403 93.5251 249.403 93.4243C247.357 93.4243 245.31 93.5251 243.264 93.4243C242.618 93.4243 241.971 93.4243 241.325 93.3235C236.155 93.0212 232.062 90.9048 230.016 86.2688C229.046 84.0517 228.723 81.9352 228.939 79.9196C229.154 77.6016 230.339 75.3845 232.385 73.3688C234.109 71.7563 236.263 70.4462 238.309 69.136C239.602 68.229 240.14 67.2212 239.494 65.8102C238.956 64.5001 237.34 63.8954 235.832 64.5001C234.97 64.8024 234.216 65.2056 233.462 65.7095C232.062 66.7173 231.093 66.6165 230.123 65.004C227.754 61.0735 224.738 57.647 220.753 55.0267C219.137 53.9181 217.522 54.2204 216.552 55.5306C215.583 56.8407 215.906 58.2516 217.522 59.2595C221.507 61.9806 224.307 65.5079 226.461 69.5391C226.785 70.2446 226.677 71.3532 226.354 72.1595C225.707 73.9735 224.846 75.6868 223.876 77.4001C223.553 78.1056 222.907 78.811 222.261 79.0126C216.768 80.6251 211.382 80.3228 206.535 77.2993C202.442 74.7798 199.642 71.1517 197.488 67.1204C196.518 65.3063 195.011 64.7016 193.503 65.5079C191.995 66.2134 191.456 67.8259 192.533 69.4384C194.687 72.6634 197.165 75.6868 199.534 78.811C199.965 79.3149 200.504 79.8188 200.504 80.4235C200.719 81.9352 199.211 84.2532 197.488 85.1602C197.272 85.261 197.057 85.3618 196.842 85.4626C194.58 86.2688 193.826 87.3774 194.364 88.9899C194.903 90.5016 196.518 91.1063 198.673 90.5016C198.996 90.4009 199.211 90.3001 199.534 90.1993C202.119 89.1915 203.735 87.2766 204.812 84.9587C205.351 83.8501 205.997 83.3462 207.289 83.8501C209.228 84.6563 211.274 85.0595 213.213 85.261C216.014 85.5634 218.922 85.3618 221.83 84.6563C223.122 84.354 223.661 84.8579 224.092 85.9665C224.63 87.579 225.384 89.0907 226.031 90.6024C226.354 91.3079 226.461 92.1142 226.785 92.9204C225.923 93.122 225.061 93.6259 224.2 93.5251C222.368 93.4243 220.968 94.029 219.46 95.0368C215.798 97.6571 212.136 100.277 208.366 102.898C205.674 104.813 202.981 106.627 200.396 108.542C200.181 108.642 199.965 108.743 199.75 108.844C198.996 109.146 198.026 109.348 197.488 109.045C196.734 108.743 196.195 107.433 196.195 106.627C196.088 103.402 196.195 100.076 196.195 96.7501C196.195 94.3313 195.334 93.5251 192.749 93.5251C190.918 93.5251 189.194 93.4243 187.363 93.5251C186.071 93.6259 185.317 93.122 184.778 92.0134C183.378 88.9899 181.116 86.5712 178.316 84.5556C176.7 83.447 175.085 83.5477 174.115 84.7571C173.038 85.9665 173.361 87.4782 174.869 88.6876C175.838 89.4938 176.808 90.1993 177.669 91.2071C177.993 91.6102 178.208 92.4165 178.1 92.9204C177.993 93.3235 177.131 93.5251 176.485 93.6259C174.115 93.7267 171.746 93.6259 169.376 93.6259C167.976 93.7267 167.329 93.122 166.899 92.0134C165.391 87.579 165.175 83.1446 166.683 78.6095C167.76 75.3845 169.591 72.7641 173.146 71.5548C174.546 71.0509 175.408 71.2524 176.054 72.6634C176.916 74.5782 178.208 76.1907 179.824 77.5009C180.578 78.1056 181.332 78.7102 182.086 79.2141C183.917 80.3227 185.532 80.222 186.502 78.811C187.471 77.5009 187.04 76.0899 185.317 74.8806C179.393 70.9501 178.316 63.0892 182.947 57.8485C187.04 53.2126 193.718 52.5071 199.642 56.1353C204.058 58.8563 206.966 62.686 209.013 67.2212C209.228 67.7251 209.443 68.229 209.659 68.7329C210.413 70.547 211.598 71.2524 213.213 70.7485C214.829 70.2446 215.475 68.8337 214.829 66.9188C212.782 61.4767 209.551 56.7399 204.704 53.1118C203.412 52.104 203.304 51.2977 204.489 50.1891C211.705 43.5376 225.815 44.6462 231.416 52.4063C232.601 54.0188 233.893 54.8251 236.047 54.3212C236.909 54.1196 237.986 54.2204 238.956 54.3212C247.895 54.9259 253.388 61.3759 251.988 69.5391C251.234 73.6712 248.972 76.997 245.957 79.9196C244.341 81.5321 244.233 83.0438 245.418 84.1524C246.711 85.3618 248.326 85.1602 250.05 83.447C250.803 82.7415 251.557 81.9352 252.204 81.129C252.311 80.9274 252.419 80.8266 252.527 80.6251C254.466 78.2063 255.866 75.586 256.835 72.6634C257.266 71.0509 258.235 70.8493 259.636 71.454C262.544 72.7642 265.021 74.679 266.852 77.1985C269.76 81.2298 269.545 86.0673 266.744 89.2923Z" fill="url(#paint0_linear_15_42)"/>
<path d="M56.8208 131.419H41.957V100.479C41.957 94.8353 43.5726 90.1993 46.6962 86.5712C48.5272 84.5556 50.8968 82.8423 53.6972 81.6329C56.4977 80.4235 59.4058 79.8188 62.4216 79.8188C68.3456 79.8188 73.3001 81.6329 77.3931 85.3618C81.486 89.0907 83.5324 93.6259 83.5324 99.0681C83.5324 104.309 81.486 108.844 77.5008 112.674C73.5156 116.503 68.6687 118.418 63.1756 118.418C62.3139 118.418 60.9137 118.317 59.1904 118.116V102.797C60.3752 103.704 61.6677 104.208 62.8524 104.208C64.3604 104.208 65.7606 103.704 66.8376 102.595C67.9147 101.487 68.4533 100.277 68.4533 98.7657C68.4533 97.254 67.9147 96.0446 66.7299 95.0368C65.5452 94.029 64.2527 93.5251 62.637 93.5251C58.8672 93.5251 56.9285 96.0446 56.9285 100.882V131.419H56.8208Z" fill="#FCFBFA"/>
<path d="M128.985 101.386H106.474C106.151 100.277 105.936 99.3704 105.936 98.4633C105.936 97.254 106.151 96.0446 106.689 94.8352H114.229C113.691 92.1141 112.075 90.7032 109.274 90.7032C107.443 90.7032 105.936 91.4086 104.751 92.9204C103.566 94.4321 103.027 96.2461 103.027 98.5641C103.027 100.983 103.566 102.898 104.751 104.409C105.828 105.921 107.336 106.627 109.167 106.627C110.675 106.627 112.075 105.921 113.475 104.51L121.984 114.084C117.999 117.007 113.691 118.418 108.844 118.418C102.92 118.418 97.9651 116.604 93.9799 112.875C89.9947 109.146 87.9482 104.611 87.9482 99.1688C87.9482 93.7266 89.9947 89.1915 93.9799 85.3618C98.0728 81.6329 103.027 79.718 108.844 79.718C114.552 79.718 119.399 81.5321 123.384 85.1602C127.262 88.7883 129.201 93.3235 129.201 98.6649C129.093 99.2696 129.093 100.177 128.985 101.386Z" fill="#FCFBFA"/>
<path d="M160.005 81.1289V95.843C157.958 95.843 156.451 96.2461 155.697 96.9516C154.943 97.657 154.404 99.1688 154.189 101.285C153.542 108.441 150.527 113.48 145.249 116.503C142.448 118.015 138.463 118.821 133.401 118.821H131.354V104.107H132.001C134.37 104.107 136.094 103.603 137.063 102.696C138.032 101.789 138.679 100.177 138.786 97.7578C139.002 93.9281 139.325 91.3078 139.971 89.7961C140.617 88.2844 141.587 86.7727 143.31 85.2609C146.218 82.6406 150.311 81.2297 155.481 81.2297H160.005V81.1289Z" fill="#FCFBFA"/>
<path d="M178.315 98.6649C175.299 98.6649 172.176 98.7656 169.16 98.6649C167.437 98.5641 166.036 98.3625 164.852 97.7578V117.612H179.715V98.6649H178.315ZM190.702 115.495C190.702 111.061 190.702 106.627 190.702 102.192C190.702 99.068 190.163 98.6649 186.932 98.6649H184.778V117.612H190.917C190.702 117.007 190.594 116.302 190.702 115.495Z" fill="#FCFBFA"/>
<path d="M344.294 35.8781L9.10552 0L0.273438 172.336L346.233 151.575L344.294 35.8781ZM13.8447 159.335L21.3843 13.4039L331.584 46.6617L333.092 140.187L13.8447 159.335Z" fill="url(#paint1_linear_15_42)"/>
<path d="M365.728 80.222V95.1376C364.651 94.6337 363.789 94.3313 362.927 94.3313C360.235 94.3313 358.834 96.2462 358.834 100.177V117.813H343.971V97.3548C343.971 92.0134 345.586 87.6798 348.71 84.5556C351.833 81.3306 356.034 79.8188 361.204 79.8188C362.389 79.8188 363.897 79.9196 365.728 80.222Z" fill="#FCFBFA"/>
<path d="M318.121 103.704V118.116C316.936 118.317 315.751 118.418 314.782 118.418C308.858 118.418 303.796 116.604 299.918 112.875C295.933 109.247 293.994 104.611 293.994 99.068C293.994 93.7266 296.041 89.0907 300.026 85.3618C304.011 81.6329 308.966 79.718 314.674 79.718C321.137 79.718 326.199 81.4313 329.861 84.9586C333.523 88.486 335.462 93.2227 335.462 99.3704V117.612H320.598V100.378C320.598 98.4633 320.06 96.8508 319.09 95.6415C318.121 94.4321 316.721 93.9282 314.997 93.9282C313.382 93.9282 312.089 94.4321 310.904 95.5407C309.72 96.6493 309.181 97.8586 309.181 99.3704C309.181 100.882 309.72 102.192 310.689 103.2C311.658 104.208 313.059 104.712 314.674 104.712C315.751 104.712 317.044 104.409 318.121 103.704Z" fill="#FCFBFA"/>
<path d="M192.641 43.1345C192.533 43.9407 191.671 44.5454 190.81 44.3438C188.548 44.0415 184.024 43.7392 179.716 46.0571C178.423 46.7626 177.238 47.5689 176.269 48.5767C175.946 48.879 175.515 49.0806 175.084 49.0806C174.653 49.0806 174.223 48.9798 174.007 48.6774C173.361 48.0727 173.361 47.1657 174.007 46.561C175.3 45.3517 176.7 44.3439 178.208 43.5376C183.378 40.8165 188.763 41.0181 191.456 41.522C192.21 41.6228 192.856 42.3282 192.641 43.1345Z" fill="white"/>
<path d="M172.607 53.0109C172.607 53.8172 171.853 54.6234 170.883 54.6234C170.022 54.6234 169.16 53.918 169.16 53.0109C169.16 52.2047 169.914 51.3984 170.883 51.3984C171.745 51.4992 172.607 52.2047 172.607 53.0109Z" fill="white"/>
<path d="M237.016 61.0735C236.262 61.2751 235.508 61.5774 234.862 61.9805C234.216 62.3837 233.677 62.8876 233.139 63.3915C232.923 63.593 232.6 63.7946 232.277 63.7946C232.277 63.7946 232.169 63.7946 232.062 63.7946C231.631 63.6938 231.308 63.4923 231.2 63.0891C230.877 62.0813 230.338 61.0735 229.8 60.2673C229.154 59.2594 228.4 58.3524 227.538 57.5462C227.107 57.143 227.107 56.5384 227.538 56.1352C227.969 55.7321 228.615 55.7321 229.046 56.1352C230.015 57.0423 230.985 58.0501 231.631 59.1587C231.954 59.7634 232.385 60.368 232.6 60.9727C232.923 60.6704 233.247 60.4688 233.57 60.2673C234.431 59.7633 235.401 59.3602 236.37 59.1587C236.909 59.0579 237.555 59.3602 237.663 59.8641C237.986 60.368 237.663 60.8719 237.016 61.0735Z" fill="white"/>
<defs>
<linearGradient id="paint0_linear_15_42" x1="159.968" y1="78.9889" x2="274.496" y2="78.9889" gradientUnits="userSpaceOnUse">
<stop stop-opacity="0"/>
<stop offset="0.3687" stop-color="#BE1902"/>
<stop offset="1" stop-color="#BE1902"/>
</linearGradient>
<linearGradient id="paint1_linear_15_42" x1="0.241125" y1="86.1393" x2="346.211" y2="86.1393" gradientUnits="userSpaceOnUse">
<stop stop-opacity="0"/>
<stop offset="0.7207" stop-color="#BE1902"/>
<stop offset="1" stop-color="#BE1902"/>
</linearGradient>
</defs>
</svg>
