<svg width="43" height="55" viewBox="0 0 43 55" fill="none" xmlns="http://www.w3.org/2000/svg">
<path d="M7.29278 17.0104C7.29278 7.66934 13.5571 0.0639648 21.2511 0.0639648C28.945 0.0639648 35.2094 7.66934 35.2094 17.0104C35.2094 26.3514 28.945 33.9568 21.2511 33.9568C13.5571 33.9568 7.29278 26.3619 7.29278 17.0104ZM42.1149 54.1746C41.8636 54.5218 41.5171 54.7111 41.1358 54.7111H1.36635C0.985113 54.7111 0.638537 54.5218 0.38727 54.1746C0.136003 53.838 0.0233678 53.4067 0.0666896 52.9544C0.915798 44.3813 5.35196 36.7654 11.7116 32.9049C14.3889 35.2822 17.6814 36.6812 21.2511 36.6812C24.8208 36.6812 28.1133 35.2717 30.7906 32.9049C37.1502 36.7654 41.5864 44.3813 42.4355 52.9544C42.4788 53.4067 42.3662 53.838 42.1149 54.1746Z" fill="white"/>
</svg>
