<svg width="576" height="33" viewBox="0 0 576 33" fill="none" xmlns="http://www.w3.org/2000/svg">
<path d="M2.512 32.488C2.04267 32.488 1.648 32.328 1.328 32.008C1.02933 31.7093 0.88 31.3253 0.88 30.856V16.264C0.901333 14.5787 1.296 13.064 2.064 11.72C2.832 10.376 3.87733 9.32 5.2 8.552C6.52267 7.76267 8.016 7.368 9.68 7.368C11.3653 7.368 12.8693 7.76267 14.192 8.552C15.5147 9.32 16.56 10.376 17.328 11.72C18.1173 13.064 18.512 14.5787 18.512 16.264C18.512 17.9493 18.1493 19.464 17.424 20.808C16.72 22.1307 15.7493 23.1867 14.512 23.976C13.2747 24.744 11.8773 25.128 10.32 25.128C9.06133 25.128 7.89867 24.872 6.832 24.36C5.78667 23.8267 4.89067 23.112 4.144 22.216V30.856C4.144 31.3253 3.99467 31.7093 3.696 32.008C3.39733 32.328 3.00267 32.488 2.512 32.488ZM9.68 22.248C10.768 22.248 11.7387 21.992 12.592 21.48C13.4453 20.9467 14.1173 20.232 14.608 19.336C15.12 18.4187 15.376 17.3947 15.376 16.264C15.376 15.112 15.12 14.088 14.608 13.192C14.1173 12.2747 13.4453 11.56 12.592 11.048C11.7387 10.5147 10.768 10.248 9.68 10.248C8.61333 10.248 7.64267 10.5147 6.768 11.048C5.91467 11.56 5.24267 12.2747 4.752 13.192C4.26133 14.088 4.016 15.112 4.016 16.264C4.016 17.3947 4.26133 18.4187 4.752 19.336C5.24267 20.232 5.91467 20.9467 6.768 21.48C7.64267 21.992 8.61333 22.248 9.68 22.248ZM63.284 25.128C61.5133 25.128 59.9347 24.7547 58.548 24.008C57.1827 23.24 56.1053 22.1947 55.316 20.872C54.548 19.528 54.164 17.992 54.164 16.264C54.164 14.5147 54.5267 12.9787 55.252 11.656C55.9987 10.312 57.0227 9.26667 58.324 8.52C59.6253 7.752 61.1187 7.368 62.804 7.368C64.468 7.368 65.8973 7.74133 67.092 8.488C68.2867 9.21333 69.1933 10.2267 69.812 11.528C70.452 12.808 70.772 14.2907 70.772 15.976C70.772 16.3813 70.6333 16.7227 70.356 17C70.0787 17.256 69.7267 17.384 69.3 17.384H56.404V14.824H69.204L67.892 15.72C67.8707 14.6533 67.6573 13.704 67.252 12.872C66.8467 12.0187 66.2707 11.3467 65.524 10.856C64.7773 10.3653 63.8707 10.12 62.804 10.12C61.588 10.12 60.5427 10.3867 59.668 10.92C58.8147 11.4533 58.164 12.1893 57.716 13.128C57.268 14.0453 57.044 15.0907 57.044 16.264C57.044 17.4373 57.3107 18.4827 57.844 19.4C58.3773 20.3173 59.1133 21.0427 60.052 21.576C60.9907 22.1093 62.068 22.376 63.284 22.376C63.9453 22.376 64.6173 22.2587 65.3 22.024C66.004 21.768 66.5693 21.48 66.996 21.16C67.316 20.9253 67.6573 20.808 68.02 20.808C68.404 20.7867 68.7347 20.8933 69.012 21.128C69.3747 21.448 69.5667 21.8 69.588 22.184C69.6093 22.568 69.4387 22.8987 69.076 23.176C68.3507 23.752 67.444 24.2213 66.356 24.584C65.2893 24.9467 64.2653 25.128 63.284 25.128ZM112.983 25.128C111.49 25.128 110.103 24.904 108.823 24.456C107.564 23.9867 106.583 23.4 105.879 22.696C105.559 22.3547 105.42 21.9707 105.463 21.544C105.527 21.096 105.74 20.7333 106.103 20.456C106.53 20.1147 106.946 19.976 107.351 20.04C107.778 20.0827 108.14 20.264 108.439 20.584C108.802 20.9893 109.378 21.3733 110.167 21.736C110.978 22.0773 111.874 22.248 112.855 22.248C114.092 22.248 115.031 22.0453 115.671 21.64C116.332 21.2347 116.674 20.712 116.695 20.072C116.716 19.432 116.407 18.8773 115.767 18.408C115.148 17.9387 114.007 17.5547 112.343 17.256C110.188 16.8293 108.62 16.1893 107.639 15.336C106.679 14.4827 106.199 13.4373 106.199 12.2C106.199 11.112 106.519 10.216 107.159 9.512C107.799 8.78667 108.62 8.25333 109.623 7.912C110.626 7.54933 111.671 7.368 112.759 7.368C114.167 7.368 115.415 7.592 116.503 8.04C117.591 8.488 118.455 9.10667 119.095 9.896C119.394 10.2373 119.532 10.6 119.511 10.984C119.49 11.3467 119.308 11.656 118.967 11.912C118.626 12.1467 118.22 12.2213 117.751 12.136C117.282 12.0507 116.887 11.8587 116.567 11.56C116.034 11.048 115.458 10.696 114.839 10.504C114.22 10.312 113.506 10.216 112.695 10.216C111.756 10.216 110.956 10.376 110.295 10.696C109.655 11.016 109.335 11.4853 109.335 12.104C109.335 12.488 109.431 12.84 109.623 13.16C109.836 13.4587 110.242 13.736 110.839 13.992C111.436 14.2267 112.311 14.4613 113.463 14.696C115.063 15.016 116.322 15.4213 117.239 15.912C118.178 16.4027 118.85 16.9787 119.255 17.64C119.66 18.28 119.863 19.0267 119.863 19.88C119.863 20.8613 119.596 21.7467 119.063 22.536C118.551 23.3253 117.783 23.9547 116.759 24.424C115.756 24.8933 114.498 25.128 112.983 25.128ZM157.302 18.632C156.833 18.632 156.438 18.4827 156.118 18.184C155.819 17.864 155.67 17.4693 155.67 17V1.64C155.67 1.14933 155.819 0.754666 156.118 0.455999C156.438 0.157333 156.833 0.00799942 157.302 0.00799942C157.793 0.00799942 158.187 0.157333 158.486 0.455999C158.785 0.754666 158.934 1.14933 158.934 1.64V17C158.934 17.4693 158.785 17.864 158.486 18.184C158.187 18.4827 157.793 18.632 157.302 18.632ZM170.454 25.032C169.985 25.032 169.59 24.8827 169.27 24.584C168.971 24.264 168.822 23.8693 168.822 23.4V15.528C168.822 14.312 168.598 13.32 168.15 12.552C167.702 11.784 167.094 11.2187 166.326 10.856C165.579 10.472 164.715 10.28 163.734 10.28C162.838 10.28 162.027 10.4613 161.302 10.824C160.577 11.1867 160.001 11.6773 159.574 12.296C159.147 12.8933 158.934 13.5867 158.934 14.376H156.918C156.918 13.032 157.238 11.8373 157.878 10.792C158.539 9.72533 159.435 8.88267 160.566 8.264C161.697 7.64533 162.966 7.336 164.374 7.336C165.846 7.336 167.158 7.656 168.31 8.296C169.483 8.91467 170.401 9.832 171.062 11.048C171.745 12.264 172.086 13.7573 172.086 15.528V23.4C172.086 23.8693 171.926 24.264 171.606 24.584C171.307 24.8827 170.923 25.032 170.454 25.032ZM157.302 25.032C156.833 25.032 156.438 24.8827 156.118 24.584C155.819 24.264 155.67 23.8693 155.67 23.4V9.128C155.67 8.63733 155.819 8.24266 156.118 7.944C156.438 7.64533 156.833 7.496 157.302 7.496C157.793 7.496 158.187 7.64533 158.486 7.944C158.785 8.24266 158.934 8.63733 158.934 9.128V23.4C158.934 23.8693 158.785 24.264 158.486 24.584C158.187 24.8827 157.793 25.032 157.302 25.032ZM223.978 25.032C223.508 25.032 223.114 24.8827 222.794 24.584C222.495 24.264 222.346 23.8693 222.346 23.4V15.528C222.346 14.312 222.122 13.32 221.674 12.552C221.226 11.784 220.618 11.2187 219.85 10.856C219.103 10.472 218.239 10.28 217.258 10.28C216.362 10.28 215.551 10.4613 214.826 10.824C214.1 11.1867 213.524 11.6773 213.098 12.296C212.671 12.8933 212.458 13.5867 212.458 14.376H210.442C210.442 13.032 210.762 11.8373 211.402 10.792C212.063 9.72533 212.959 8.88267 214.09 8.264C215.22 7.64533 216.49 7.336 217.898 7.336C219.37 7.336 220.682 7.656 221.834 8.296C223.007 8.91467 223.924 9.832 224.586 11.048C225.268 12.264 225.61 13.7573 225.61 15.528V23.4C225.61 23.8693 225.45 24.264 225.13 24.584C224.831 24.8827 224.447 25.032 223.978 25.032ZM210.826 25.032C210.356 25.032 209.962 24.8827 209.642 24.584C209.343 24.264 209.194 23.8693 209.194 23.4V9.128C209.194 8.63733 209.343 8.24266 209.642 7.944C209.962 7.64533 210.356 7.496 210.826 7.496C211.316 7.496 211.711 7.64533 212.01 7.944C212.308 8.24266 212.458 8.63733 212.458 9.128V23.4C212.458 23.8693 212.308 24.264 212.01 24.584C211.711 24.8827 211.316 25.032 210.826 25.032ZM265.822 32.68C265.609 32.68 265.353 32.616 265.054 32.488C264.116 32.0613 263.86 31.3893 264.286 30.472L274.046 8.424C274.473 7.528 275.145 7.272 276.062 7.656C277.022 8.06133 277.289 8.73333 276.862 9.672L267.07 31.688C266.814 32.3493 266.398 32.68 265.822 32.68ZM269.598 24.296C269.193 24.4667 268.809 24.488 268.446 24.36C268.105 24.2107 267.828 23.9333 267.614 23.528L260.286 9.608C260.073 9.20267 260.041 8.81867 260.19 8.456C260.361 8.072 260.649 7.79467 261.054 7.624C261.46 7.45333 261.844 7.44267 262.206 7.592C262.569 7.72 262.846 7.98667 263.038 8.392L270.046 22.312C270.26 22.7173 270.334 23.112 270.27 23.496C270.228 23.8587 270.004 24.1253 269.598 24.296ZM318.287 25.128C316.73 25.128 315.333 24.744 314.095 23.976C312.858 23.1867 311.877 22.1307 311.151 20.808C310.447 19.464 310.095 17.9493 310.095 16.264C310.095 14.5787 310.479 13.064 311.247 11.72C312.037 10.376 313.093 9.32 314.415 8.552C315.759 7.76267 317.263 7.368 318.927 7.368C320.591 7.368 322.085 7.76267 323.407 8.552C324.73 9.32 325.775 10.376 326.543 11.72C327.333 13.064 327.727 14.5787 327.727 16.264H326.479C326.479 17.9493 326.117 19.464 325.391 20.808C324.687 22.1307 323.717 23.1867 322.479 23.976C321.242 24.744 319.845 25.128 318.287 25.128ZM318.927 22.248C320.015 22.248 320.986 21.992 321.839 21.48C322.693 20.9467 323.365 20.232 323.855 19.336C324.346 18.4187 324.591 17.3947 324.591 16.264C324.591 15.112 324.346 14.088 323.855 13.192C323.365 12.2747 322.693 11.56 321.839 11.048C320.986 10.5147 320.015 10.248 318.927 10.248C317.861 10.248 316.89 10.5147 316.015 11.048C315.162 11.56 314.479 12.2747 313.967 13.192C313.477 14.088 313.231 15.112 313.231 16.264C313.231 17.3947 313.477 18.4187 313.967 19.336C314.479 20.232 315.162 20.9467 316.015 21.48C316.89 21.992 317.861 22.248 318.927 22.248ZM326.095 25.032C325.626 25.032 325.231 24.8827 324.911 24.584C324.613 24.264 324.463 23.8693 324.463 23.4V18.504L325.071 15.112L327.727 16.264V23.4C327.727 23.8693 327.567 24.264 327.247 24.584C326.949 24.8827 326.565 25.032 326.095 25.032ZM365.833 14.056C365.833 12.776 366.142 11.6347 366.761 10.632C367.401 9.608 368.254 8.79733 369.321 8.2C370.388 7.60267 371.561 7.304 372.841 7.304C374.121 7.304 375.07 7.51733 375.689 7.944C376.329 8.34933 376.574 8.84 376.425 9.416C376.361 9.71467 376.233 9.94933 376.041 10.12C375.87 10.2693 375.668 10.3653 375.433 10.408C375.198 10.4507 374.942 10.44 374.665 10.376C373.3 10.0987 372.073 10.0773 370.985 10.312C369.897 10.5467 369.033 10.984 368.393 11.624C367.774 12.264 367.465 13.0747 367.465 14.056H365.833ZM365.865 25C365.353 25 364.958 24.872 364.681 24.616C364.404 24.3387 364.265 23.9333 364.265 23.4V9.096C364.265 8.584 364.404 8.18933 364.681 7.912C364.958 7.63467 365.353 7.496 365.865 7.496C366.398 7.496 366.793 7.63467 367.049 7.912C367.326 8.168 367.465 8.56267 367.465 9.096V23.4C367.465 23.912 367.326 24.3067 367.049 24.584C366.793 24.8613 366.398 25 365.865 25ZM408.279 25.512C407.682 25.512 407.159 25.2987 406.711 24.872C406.285 24.424 406.071 23.9013 406.071 23.304C406.071 22.6853 406.285 22.1627 406.711 21.736C407.159 21.288 407.682 21.064 408.279 21.064C408.898 21.064 409.421 21.288 409.847 21.736C410.274 22.1627 410.487 22.6853 410.487 23.304C410.487 23.9013 410.274 24.424 409.847 24.872C409.421 25.2987 408.898 25.512 408.279 25.512ZM454.592 25.128C452.886 25.128 451.36 24.744 450.016 23.976C448.694 23.1867 447.648 22.1307 446.88 20.808C446.134 19.464 445.76 17.9493 445.76 16.264C445.76 14.536 446.134 13 446.88 11.656C447.627 10.312 448.651 9.26667 449.952 8.52C451.254 7.752 452.747 7.368 454.432 7.368C455.691 7.368 456.843 7.61333 457.888 8.104C458.934 8.57333 459.872 9.288 460.704 10.248C461.003 10.5893 461.11 10.9413 461.024 11.304C460.939 11.6667 460.704 11.9867 460.32 12.264C460.022 12.4773 459.691 12.552 459.328 12.488C458.966 12.4027 458.635 12.2107 458.336 11.912C457.291 10.8027 455.99 10.248 454.432 10.248C453.344 10.248 452.384 10.504 451.552 11.016C450.72 11.5067 450.07 12.2 449.6 13.096C449.131 13.992 448.896 15.048 448.896 16.264C448.896 17.416 449.131 18.44 449.6 19.336C450.091 20.232 450.763 20.9467 451.616 21.48C452.47 21.992 453.462 22.248 454.592 22.248C455.339 22.248 455.99 22.1627 456.544 21.992C457.12 21.8 457.643 21.512 458.112 21.128C458.454 20.8507 458.806 20.7013 459.168 20.68C459.531 20.6373 459.851 20.7333 460.128 20.968C460.491 21.2667 460.694 21.608 460.736 21.992C460.779 22.3547 460.651 22.6853 460.352 22.984C458.816 24.4133 456.896 25.128 454.592 25.128ZM505.491 25.128C503.763 25.128 502.238 24.7547 500.915 24.008C499.592 23.24 498.547 22.1947 497.779 20.872C497.032 19.528 496.659 17.992 496.659 16.264C496.659 14.5147 497.032 12.9787 497.779 11.656C498.547 10.312 499.592 9.26667 500.915 8.52C502.238 7.752 503.763 7.368 505.491 7.368C507.198 7.368 508.712 7.752 510.035 8.52C511.358 9.26667 512.392 10.312 513.139 11.656C513.907 12.9787 514.291 14.5147 514.291 16.264C514.291 17.992 513.918 19.528 513.171 20.872C512.424 22.1947 511.39 23.24 510.067 24.008C508.744 24.7547 507.219 25.128 505.491 25.128ZM505.491 22.248C506.6 22.248 507.582 21.992 508.435 21.48C509.288 20.968 509.95 20.264 510.419 19.368C510.91 18.472 511.155 17.4373 511.155 16.264C511.155 15.0907 510.91 14.056 510.419 13.16C509.95 12.2427 509.288 11.528 508.435 11.016C507.582 10.504 506.6 10.248 505.491 10.248C504.382 10.248 503.4 10.504 502.547 11.016C501.694 11.528 501.022 12.2427 500.531 13.16C500.04 14.056 499.795 15.0907 499.795 16.264C499.795 17.4373 500.04 18.472 500.531 19.368C501.022 20.264 501.694 20.968 502.547 21.48C503.4 21.992 504.382 22.248 505.491 22.248ZM573.805 25.032C573.335 25.032 572.941 24.8827 572.621 24.584C572.322 24.264 572.173 23.8693 572.173 23.4V14.248C572.173 12.904 571.842 11.912 571.181 11.272C570.519 10.6107 569.655 10.28 568.589 10.28C567.479 10.28 566.562 10.664 565.837 11.432C565.133 12.2 564.781 13.1813 564.781 14.376H562.125C562.125 12.9893 562.423 11.7733 563.021 10.728C563.618 9.66133 564.45 8.82933 565.517 8.232C566.605 7.63467 567.842 7.336 569.229 7.336C570.445 7.336 571.522 7.60267 572.461 8.136C573.399 8.66933 574.125 9.45867 574.637 10.504C575.17 11.528 575.437 12.776 575.437 14.248V23.4C575.437 23.8693 575.287 24.264 574.989 24.584C574.69 24.8827 574.295 25.032 573.805 25.032ZM552.461 25.032C551.991 25.032 551.597 24.8827 551.277 24.584C550.978 24.264 550.829 23.8693 550.829 23.4V9.16C550.829 8.66933 550.978 8.27467 551.277 7.976C551.597 7.67733 551.991 7.528 552.461 7.528C552.951 7.528 553.346 7.67733 553.645 7.976C553.943 8.27467 554.093 8.66933 554.093 9.16V23.4C554.093 23.8693 553.943 24.264 553.645 24.584C553.346 24.8827 552.951 25.032 552.461 25.032ZM563.149 25.032C562.679 25.032 562.285 24.8827 561.965 24.584C561.666 24.264 561.517 23.8693 561.517 23.4V14.248C561.517 12.904 561.186 11.912 560.525 11.272C559.863 10.6107 558.999 10.28 557.933 10.28C556.823 10.28 555.906 10.664 555.181 11.432C554.455 12.2 554.093 13.1813 554.093 14.376H552.077C552.077 12.9893 552.354 11.7733 552.909 10.728C553.463 9.66133 554.231 8.82933 555.213 8.232C556.194 7.63467 557.314 7.336 558.573 7.336C559.789 7.336 560.866 7.60267 561.805 8.136C562.743 8.66933 563.469 9.45867 563.981 10.504C564.514 11.528 564.781 12.776 564.781 14.248V23.4C564.781 23.8693 564.631 24.264 564.333 24.584C564.034 24.8827 563.639 25.032 563.149 25.032Z" fill="#E2E2E2"/>
</svg>
