<svg width="276" height="13" viewBox="0 0 276 13" fill="none" xmlns="http://www.w3.org/2000/svg">
<path d="M1.28 12C1.06 12 0.875 11.925 0.725 11.775C0.575 11.625 0.5 11.44 0.5 11.22V1.065C0.5 0.835 0.575 0.649999 0.725 0.51C0.875 0.36 1.06 0.285 1.28 0.285C1.58 0.285 1.81 0.425 1.97 0.705L6.665 10.11H6.185L10.76 0.705C10.92 0.425 11.15 0.285 11.45 0.285C11.67 0.285 11.855 0.36 12.005 0.51C12.155 0.649999 12.23 0.835 12.23 1.065V11.22C12.23 11.44 12.15 11.625 11.99 11.775C11.84 11.925 11.66 12 11.45 12C11.23 12 11.045 11.925 10.895 11.775C10.745 11.625 10.67 11.44 10.67 11.22V3.225L10.97 3.15L7.04 11.16C6.87 11.42 6.645 11.55 6.365 11.55C6.035 11.55 5.795 11.395 5.645 11.085L1.76 3.3L2.06 3.225V11.22C2.06 11.44 1.985 11.625 1.835 11.775C1.685 11.925 1.5 12 1.28 12ZM20.1413 12C19.9213 12 19.7363 11.925 19.5863 11.775C19.4363 11.625 19.3613 11.44 19.3613 11.22V1.065C19.3613 0.835 19.4363 0.649999 19.5863 0.51C19.7363 0.36 19.9213 0.285 20.1413 0.285H26.9213C27.1513 0.285 27.3363 0.355 27.4763 0.495C27.6163 0.625 27.6863 0.8 27.6863 1.02C27.6863 1.23 27.6163 1.4 27.4763 1.53C27.3363 1.66 27.1513 1.725 26.9213 1.725H20.9213V5.37H25.2263C25.4563 5.37 25.6413 5.44 25.7813 5.58C25.9213 5.71 25.9913 5.88 25.9913 6.09C25.9913 6.3 25.9213 6.475 25.7813 6.615C25.6413 6.745 25.4563 6.81 25.2263 6.81H20.9213V10.56H26.9213C27.1513 10.56 27.3363 10.625 27.4763 10.755C27.6163 10.885 27.6863 11.055 27.6863 11.265C27.6863 11.485 27.6163 11.665 27.4763 11.805C27.3363 11.935 27.1513 12 26.9213 12H20.1413ZM34.7693 12C34.5493 12 34.3643 11.925 34.2143 11.775C34.0643 11.625 33.9893 11.44 33.9893 11.22V1.065C33.9893 0.835 34.0643 0.649999 34.2143 0.51C34.3643 0.36 34.5493 0.285 34.7693 0.285H37.4843C38.3443 0.285 39.1243 0.43 39.8243 0.719999C40.5343 0.999999 41.1493 1.405 41.6693 1.935C42.1893 2.455 42.5893 3.07 42.8693 3.78C43.1493 4.49 43.2893 5.275 43.2893 6.135C43.2893 6.995 43.1493 7.785 42.8693 8.505C42.5893 9.215 42.1893 9.835 41.6693 10.365C41.1493 10.885 40.5343 11.29 39.8243 11.58C39.1243 11.86 38.3443 12 37.4843 12H34.7693ZM35.5493 10.62H37.4843C38.3243 10.62 39.0643 10.43 39.7043 10.05C40.3543 9.66 40.8643 9.13 41.2343 8.46C41.6043 7.78 41.7893 7.005 41.7893 6.135C41.7893 5.255 41.6043 4.48 41.2343 3.81C40.8643 3.14 40.3543 2.615 39.7043 2.235C39.0643 1.855 38.3243 1.665 37.4843 1.665H35.5493V10.62ZM50.6423 12C50.4223 12 50.2373 11.925 50.0873 11.775C49.9373 11.625 49.8623 11.44 49.8623 11.22V1.065C49.8623 0.835 49.9373 0.649999 50.0873 0.51C50.2373 0.36 50.4223 0.285 50.6423 0.285C50.8723 0.285 51.0573 0.36 51.1973 0.51C51.3473 0.649999 51.4223 0.835 51.4223 1.065V11.22C51.4223 11.44 51.3473 11.625 51.1973 11.775C51.0573 11.925 50.8723 12 50.6423 12ZM58.078 12C57.798 12 57.583 11.88 57.433 11.64C57.283 11.4 57.268 11.145 57.388 10.875L61.603 0.809999C61.753 0.46 61.998 0.285 62.338 0.285C62.698 0.285 62.943 0.46 63.073 0.809999L67.303 10.905C67.413 11.185 67.393 11.44 67.243 11.67C67.103 11.89 66.888 12 66.598 12C66.448 12 66.303 11.96 66.163 11.88C66.033 11.79 65.938 11.67 65.878 11.52L62.158 2.28H62.578L58.798 11.52C58.728 11.68 58.623 11.8 58.483 11.88C58.353 11.96 58.218 12 58.078 12ZM58.873 9.42L59.473 8.13H65.353L65.953 9.42H58.873ZM86.9844 12.15C86.1744 12.15 85.4144 12 84.7044 11.7C84.0044 11.39 83.3894 10.965 82.8594 10.425C82.3394 9.875 81.9294 9.235 81.6294 8.505C81.3394 7.775 81.1944 6.985 81.1944 6.135C81.1944 5.295 81.3394 4.515 81.6294 3.795C81.9294 3.065 82.3394 2.43 82.8594 1.89C83.3894 1.34 84.0044 0.909999 84.7044 0.599999C85.4044 0.29 86.1644 0.135 86.9844 0.135C87.7544 0.135 88.4144 0.235 88.9644 0.435C89.5244 0.634999 90.0844 0.964999 90.6444 1.425C90.7244 1.485 90.7844 1.55 90.8244 1.62C90.8744 1.68 90.9044 1.745 90.9144 1.815C90.9344 1.875 90.9444 1.95 90.9444 2.04C90.9444 2.23 90.8744 2.39 90.7344 2.52C90.6044 2.64 90.4444 2.71 90.2544 2.73C90.0644 2.74 89.8794 2.675 89.6994 2.535C89.3294 2.215 88.9444 1.97 88.5444 1.8C88.1544 1.63 87.6344 1.545 86.9844 1.545C86.3944 1.545 85.8394 1.665 85.3194 1.905C84.7994 2.145 84.3394 2.475 83.9394 2.895C83.5494 3.315 83.2444 3.805 83.0244 4.365C82.8044 4.915 82.6944 5.505 82.6944 6.135C82.6944 6.775 82.8044 7.375 83.0244 7.935C83.2444 8.485 83.5494 8.97 83.9394 9.39C84.3394 9.81 84.7994 10.14 85.3194 10.38C85.8394 10.61 86.3944 10.725 86.9844 10.725C87.4944 10.725 87.9744 10.64 88.4244 10.47C88.8844 10.29 89.3244 10.045 89.7444 9.735C89.9244 9.605 90.0994 9.55 90.2694 9.57C90.4494 9.58 90.5994 9.65 90.7194 9.78C90.8394 9.9 90.8994 10.07 90.8994 10.29C90.8994 10.39 90.8794 10.49 90.8394 10.59C90.7994 10.68 90.7394 10.765 90.6594 10.845C90.1194 11.275 89.5394 11.6 88.9194 11.82C88.3094 12.04 87.6644 12.15 86.9844 12.15ZM102.935 12.15C102.055 12.15 101.25 12.005 100.52 11.715C99.7895 11.415 99.1595 11 98.6295 10.47C98.1095 9.93 97.7045 9.295 97.4145 8.565C97.1245 7.825 96.9795 7.015 96.9795 6.135C96.9795 5.255 97.1245 4.45 97.4145 3.72C97.7045 2.99 98.1095 2.36 98.6295 1.83C99.1595 1.29 99.7895 0.874999 100.52 0.584999C101.25 0.285 102.055 0.135 102.935 0.135C103.815 0.135 104.615 0.285 105.335 0.584999C106.065 0.874999 106.695 1.29 107.225 1.83C107.755 2.36 108.165 2.99 108.455 3.72C108.745 4.45 108.89 5.255 108.89 6.135C108.89 7.015 108.745 7.825 108.455 8.565C108.165 9.295 107.755 9.93 107.225 10.47C106.695 11 106.065 11.415 105.335 11.715C104.615 12.005 103.815 12.15 102.935 12.15ZM102.935 10.74C103.585 10.74 104.18 10.625 104.72 10.395C105.27 10.155 105.745 9.83 106.145 9.42C106.545 9 106.85 8.51 107.06 7.95C107.28 7.39 107.39 6.785 107.39 6.135C107.39 5.485 107.28 4.88 107.06 4.32C106.85 3.76 106.545 3.275 106.145 2.865C105.745 2.445 105.27 2.12 104.72 1.89C104.18 1.66 103.585 1.545 102.935 1.545C102.285 1.545 101.685 1.66 101.135 1.89C100.595 2.12 100.125 2.445 99.7245 2.865C99.3345 3.275 99.0295 3.76 98.8095 4.32C98.5895 4.88 98.4795 5.485 98.4795 6.135C98.4795 6.785 98.5895 7.39 98.8095 7.95C99.0295 8.51 99.3345 9 99.7245 9.42C100.125 9.83 100.595 10.155 101.135 10.395C101.685 10.625 102.285 10.74 102.935 10.74ZM116.223 12C116.003 12 115.818 11.925 115.668 11.775C115.528 11.625 115.458 11.44 115.458 11.22V1.065C115.458 0.835 115.528 0.649999 115.668 0.51C115.818 0.36 116.003 0.285 116.223 0.285C116.463 0.285 116.663 0.38 116.823 0.57L123.363 9.27V1.065C123.363 0.835 123.438 0.649999 123.588 0.51C123.738 0.36 123.923 0.285 124.143 0.285C124.373 0.285 124.558 0.36 124.698 0.51C124.838 0.649999 124.908 0.835 124.908 1.065V11.22C124.908 11.44 124.838 11.625 124.698 11.775C124.558 11.925 124.373 12 124.143 12C124.043 12 123.933 11.98 123.813 11.94C123.703 11.89 123.613 11.82 123.543 11.73L117.003 3.03V11.22C117.003 11.44 116.928 11.625 116.778 11.775C116.638 11.925 116.453 12 116.223 12ZM135.499 12C135.279 12 135.094 11.925 134.944 11.775C134.794 11.625 134.719 11.44 134.719 11.22V0.285H136.279V11.22C136.279 11.44 136.204 11.625 136.054 11.775C135.904 11.925 135.719 12 135.499 12ZM131.479 1.725C131.269 1.725 131.094 1.66 130.954 1.53C130.824 1.39 130.759 1.215 130.759 1.005C130.759 0.795 130.824 0.625 130.954 0.495C131.094 0.355 131.269 0.285 131.479 0.285H139.504C139.714 0.285 139.884 0.355 140.014 0.495C140.154 0.625 140.224 0.795 140.224 1.005C140.224 1.215 140.154 1.39 140.014 1.53C139.884 1.66 139.714 1.725 139.504 1.725H131.479ZM146.856 12C146.636 12 146.451 11.925 146.301 11.775C146.151 11.625 146.076 11.44 146.076 11.22V1.065C146.076 0.835 146.151 0.649999 146.301 0.51C146.451 0.36 146.636 0.285 146.856 0.285H153.636C153.866 0.285 154.051 0.355 154.191 0.495C154.331 0.625 154.401 0.8 154.401 1.02C154.401 1.23 154.331 1.4 154.191 1.53C154.051 1.66 153.866 1.725 153.636 1.725H147.636V5.37H151.941C152.171 5.37 152.356 5.44 152.496 5.58C152.636 5.71 152.706 5.88 152.706 6.09C152.706 6.3 152.636 6.475 152.496 6.615C152.356 6.745 152.171 6.81 151.941 6.81H147.636V10.56H153.636C153.866 10.56 154.051 10.625 154.191 10.755C154.331 10.885 154.401 11.055 154.401 11.265C154.401 11.485 154.331 11.665 154.191 11.805C154.051 11.935 153.866 12 153.636 12H146.856ZM161.469 12C161.249 12 161.064 11.925 160.914 11.775C160.774 11.625 160.704 11.44 160.704 11.22V1.065C160.704 0.835 160.774 0.649999 160.914 0.51C161.064 0.36 161.249 0.285 161.469 0.285C161.709 0.285 161.909 0.38 162.069 0.57L168.609 9.27V1.065C168.609 0.835 168.684 0.649999 168.834 0.51C168.984 0.36 169.169 0.285 169.389 0.285C169.619 0.285 169.804 0.36 169.944 0.51C170.084 0.649999 170.154 0.835 170.154 1.065V11.22C170.154 11.44 170.084 11.625 169.944 11.775C169.804 11.925 169.619 12 169.389 12C169.289 12 169.179 11.98 169.059 11.94C168.949 11.89 168.859 11.82 168.789 11.73L162.249 3.03V11.22C162.249 11.44 162.174 11.625 162.024 11.775C161.884 11.925 161.699 12 161.469 12ZM180.745 12C180.525 12 180.34 11.925 180.19 11.775C180.04 11.625 179.965 11.44 179.965 11.22V0.285H181.525V11.22C181.525 11.44 181.45 11.625 181.3 11.775C181.15 11.925 180.965 12 180.745 12ZM176.725 1.725C176.515 1.725 176.34 1.66 176.2 1.53C176.07 1.39 176.005 1.215 176.005 1.005C176.005 0.795 176.07 0.625 176.2 0.495C176.34 0.355 176.515 0.285 176.725 0.285H184.75C184.96 0.285 185.13 0.355 185.26 0.495C185.4 0.625 185.47 0.795 185.47 1.005C185.47 1.215 185.4 1.39 185.26 1.53C185.13 1.66 184.96 1.725 184.75 1.725H176.725ZM200.622 12C200.402 12 200.217 11.925 200.067 11.775C199.917 11.625 199.842 11.44 199.842 11.22V1.065C199.842 0.835 199.917 0.649999 200.067 0.51C200.217 0.36 200.402 0.285 200.622 0.285H203.322C204.072 0.285 204.737 0.445 205.317 0.765C205.897 1.075 206.347 1.505 206.667 2.055C206.997 2.605 207.162 3.245 207.162 3.975C207.162 4.655 206.997 5.26 206.667 5.79C206.347 6.32 205.897 6.735 205.317 7.035C204.737 7.335 204.072 7.485 203.322 7.485H201.402V11.22C201.402 11.44 201.327 11.625 201.177 11.775C201.037 11.925 200.852 12 200.622 12ZM206.847 12C206.707 12 206.577 11.97 206.457 11.91C206.347 11.85 206.252 11.755 206.172 11.625L203.472 7.275L204.987 6.84L207.447 10.8C207.627 11.09 207.652 11.365 207.522 11.625C207.392 11.875 207.167 12 206.847 12ZM201.402 6.045H203.322C203.782 6.045 204.187 5.96 204.537 5.79C204.887 5.61 205.162 5.365 205.362 5.055C205.562 4.735 205.662 4.375 205.662 3.975C205.662 3.535 205.562 3.145 205.362 2.805C205.162 2.465 204.887 2.2 204.537 2.01C204.187 1.82 203.782 1.725 203.322 1.725H201.402V6.045ZM212.979 12C212.699 12 212.484 11.88 212.334 11.64C212.184 11.4 212.169 11.145 212.289 10.875L216.504 0.809999C216.654 0.46 216.899 0.285 217.239 0.285C217.599 0.285 217.844 0.46 217.974 0.809999L222.204 10.905C222.314 11.185 222.294 11.44 222.144 11.67C222.004 11.89 221.789 12 221.499 12C221.349 12 221.204 11.96 221.064 11.88C220.934 11.79 220.839 11.67 220.779 11.52L217.059 2.28H217.479L213.699 11.52C213.629 11.68 213.524 11.8 213.384 11.88C213.254 11.96 213.119 12 212.979 12ZM213.774 9.42L214.374 8.13H220.254L220.854 9.42H213.774ZM230.38 12C230.16 12 229.975 11.925 229.825 11.775C229.675 11.625 229.6 11.44 229.6 11.22V0.285H231.16V11.22C231.16 11.44 231.085 11.625 230.935 11.775C230.785 11.925 230.6 12 230.38 12ZM226.36 1.725C226.15 1.725 225.975 1.66 225.835 1.53C225.705 1.39 225.64 1.215 225.64 1.005C225.64 0.795 225.705 0.625 225.835 0.495C225.975 0.355 226.15 0.285 226.36 0.285H234.385C234.595 0.285 234.765 0.355 234.895 0.495C235.035 0.625 235.105 0.795 235.105 1.005C235.105 1.215 235.035 1.39 234.895 1.53C234.765 1.66 234.595 1.725 234.385 1.725H226.36ZM241.737 12C241.517 12 241.332 11.925 241.182 11.775C241.032 11.625 240.957 11.44 240.957 11.22V1.065C240.957 0.835 241.032 0.649999 241.182 0.51C241.332 0.36 241.517 0.285 241.737 0.285C241.967 0.285 242.152 0.36 242.292 0.51C242.442 0.649999 242.517 0.835 242.517 1.065V11.22C242.517 11.44 242.442 11.625 242.292 11.775C242.152 11.925 241.967 12 241.737 12ZM250.403 12C250.183 12 249.998 11.925 249.848 11.775C249.708 11.625 249.638 11.44 249.638 11.22V1.065C249.638 0.835 249.708 0.649999 249.848 0.51C249.998 0.36 250.183 0.285 250.403 0.285C250.643 0.285 250.843 0.38 251.003 0.57L257.543 9.27V1.065C257.543 0.835 257.618 0.649999 257.768 0.51C257.918 0.36 258.103 0.285 258.323 0.285C258.553 0.285 258.738 0.36 258.878 0.51C259.018 0.649999 259.088 0.835 259.088 1.065V11.22C259.088 11.44 259.018 11.625 258.878 11.775C258.738 11.925 258.553 12 258.323 12C258.223 12 258.113 11.98 257.993 11.94C257.883 11.89 257.793 11.82 257.723 11.73L251.183 3.03V11.22C251.183 11.44 251.108 11.625 250.958 11.775C250.818 11.925 250.633 12 250.403 12ZM271.464 12.15C270.654 12.15 269.894 12 269.184 11.7C268.484 11.39 267.869 10.965 267.339 10.425C266.819 9.875 266.409 9.235 266.109 8.505C265.819 7.775 265.674 6.985 265.674 6.135C265.674 5.295 265.819 4.515 266.109 3.795C266.409 3.065 266.819 2.43 267.339 1.89C267.869 1.34 268.484 0.909999 269.184 0.599999C269.884 0.29 270.644 0.135 271.464 0.135C272.234 0.135 272.894 0.235 273.444 0.435C274.004 0.634999 274.564 0.964999 275.124 1.425C275.204 1.485 275.264 1.55 275.304 1.62C275.354 1.68 275.384 1.745 275.394 1.815C275.414 1.875 275.424 1.95 275.424 2.04C275.424 2.23 275.354 2.39 275.214 2.52C275.084 2.65 274.919 2.72 274.719 2.73C274.529 2.74 274.349 2.675 274.179 2.535C273.809 2.215 273.424 1.97 273.024 1.8C272.634 1.63 272.114 1.545 271.464 1.545C270.874 1.545 270.319 1.665 269.799 1.905C269.279 2.145 268.819 2.475 268.419 2.895C268.029 3.315 267.724 3.805 267.504 4.365C267.284 4.915 267.174 5.505 267.174 6.135C267.174 6.775 267.284 7.375 267.504 7.935C267.724 8.485 268.029 8.97 268.419 9.39C268.819 9.81 269.279 10.14 269.799 10.38C270.319 10.61 270.874 10.725 271.464 10.725C271.974 10.725 272.454 10.64 272.904 10.47C273.364 10.29 273.804 10.045 274.224 9.735C274.404 9.605 274.579 9.55 274.749 9.57C274.929 9.58 275.079 9.65 275.199 9.78C275.319 9.9 275.379 10.07 275.379 10.29C275.379 10.39 275.359 10.49 275.319 10.59C275.289 10.68 275.229 10.765 275.139 10.845C274.609 11.285 274.034 11.615 273.414 11.835C272.794 12.045 272.144 12.15 271.464 12.15ZM275.379 10.29L273.879 9.99V7.305H271.809C271.589 7.305 271.404 7.24 271.254 7.11C271.104 6.98 271.029 6.815 271.029 6.615C271.029 6.415 271.104 6.25 271.254 6.12C271.404 5.99 271.589 5.925 271.809 5.925H274.614C274.844 5.925 275.029 6 275.169 6.15C275.309 6.29 275.379 6.475 275.379 6.705V10.29Z" fill="white"/>
</svg>
